<?xml version="1.0" encoding="utf-8"?>
<!-- Generator: Adobe Illustrator 18.1.1, SVG Export Plug-In . SVG Version: 6.00 Build 0)  -->
<svg version="1.1" id="Layer_1" xmlns="http://www.w3.org/2000/svg" xmlns:xlink="http://www.w3.org/1999/xlink" x="0px" y="0px"
	 viewBox="0 0 140 46" enable-background="new 0 0 140 46" xml:space="preserve">
<g>
	<path fill="#3B5998" d="M140,42c0,2.2-1.8,4-4,4H4c-2.2,0-4-1.8-4-4V4c0-2.2,1.8-4,4-4h132c2.2,0,4,1.8,4,4V42z"/>
</g>
<g>
	<rect x="6.8" y="4.8" fill="#FFFFFF" width="36.4" height="36.4"/>
	<g>
		<path fill="#3B5998" d="M24.2,19.6l0-3.1c0-4.6,3.4-8.2,7.5-8.2h5.1v6.2h-5.1c-0.6,0-1.2,0.9-1.2,1.9v3.2h6.3v6.3h-6.3v15.3h-6.3
			V25.9h-5.1v-6.3H24.2z"/>
	</g>
</g>
<g>
	<path fill="#FFFFFF" d="M60,33.6c-1.6,0-3-0.2-4.2-0.5c-1.2-0.3-2.3-0.7-3.4-1.2v-5h0.5c1,0.9,2.2,1.6,3.5,2.1
		c1.3,0.5,2.5,0.7,3.7,0.7c0.3,0,0.7,0,1.2-0.1c0.5-0.1,0.9-0.2,1.2-0.3c0.4-0.2,0.7-0.4,0.9-0.7c0.3-0.3,0.4-0.7,0.4-1.1
		c0-0.5-0.2-1-0.6-1.3c-0.4-0.3-0.9-0.6-1.5-0.7c-0.7-0.2-1.5-0.4-2.3-0.5c-0.8-0.2-1.6-0.4-2.3-0.6c-1.6-0.6-2.8-1.3-3.5-2.3
		c-0.7-1-1.1-2.2-1.1-3.6c0-2,0.8-3.5,2.5-4.8c1.7-1.2,3.7-1.8,6.2-1.8c1.2,0,2.5,0.1,3.7,0.4s2.3,0.6,3.3,1v4.8h-0.5
		c-0.8-0.7-1.7-1.2-2.8-1.7s-2.3-0.7-3.5-0.7c-0.5,0-0.9,0-1.2,0.1c-0.4,0.1-0.7,0.2-1.2,0.4c-0.3,0.1-0.6,0.4-0.9,0.7
		c-0.2,0.3-0.4,0.6-0.4,1c0,0.5,0.2,1,0.6,1.3c0.4,0.3,1.1,0.6,2.2,0.9c0.7,0.2,1.4,0.3,2,0.5c0.7,0.1,1.3,0.4,2.1,0.6
		c1.5,0.5,2.5,1.2,3.2,2.1s1.1,2.1,1.1,3.5c0,2.1-0.8,3.8-2.5,5C65,33,62.8,33.6,60,33.6z"/>
	<path fill="#FFFFFF" d="M86.3,33.2h-4.9v-7.8c0-0.6,0-1.3-0.1-1.9c-0.1-0.6-0.1-1.1-0.3-1.4c-0.2-0.4-0.4-0.6-0.7-0.8
		c-0.3-0.2-0.7-0.2-1.3-0.2c-0.4,0-0.8,0.1-1.2,0.2s-0.9,0.4-1.3,0.7v11.2h-4.9V11.4h4.9v7.8c0.8-0.7,1.6-1.2,2.4-1.6
		s1.6-0.6,2.5-0.6c1.6,0,2.8,0.5,3.7,1.5c0.9,1,1.3,2.5,1.3,4.4V33.2z"/>
	<path fill="#FFFFFF" d="M98.6,31.6c-0.3,0.3-0.6,0.5-0.9,0.8c-0.3,0.2-0.6,0.4-1.1,0.7c-0.4,0.2-0.9,0.4-1.3,0.5
		c-0.4,0.1-1,0.2-1.8,0.2c-1.4,0-2.6-0.5-3.5-1.4c-0.9-0.9-1.4-2.1-1.4-3.5c0-1.2,0.2-2.1,0.7-2.8s1.1-1.3,2-1.7
		c0.9-0.4,2-0.7,3.2-0.9c1.2-0.2,2.6-0.3,4-0.4v-0.1c0-0.9-0.3-1.5-1-1.8s-1.6-0.5-2.9-0.5c-0.6,0-1.3,0.1-2,0.3
		c-0.8,0.2-1.5,0.5-2.3,0.8H90v-3.8c0.5-0.1,1.3-0.3,2.4-0.5s2.2-0.3,3.3-0.3c2.7,0,4.7,0.5,5.9,1.4c1.2,0.9,1.9,2.3,1.9,4.1v10.7
		h-4.9V31.6z M98.6,29.1v-3.3c-0.8,0.1-1.5,0.2-2,0.2c-0.5,0.1-1,0.2-1.5,0.4c-0.4,0.2-0.8,0.4-1,0.7s-0.4,0.7-0.4,1.2
		c0,0.7,0.2,1.2,0.6,1.5c0.4,0.3,1,0.4,1.8,0.4c0.4,0,0.9-0.1,1.3-0.3C97.8,29.8,98.2,29.5,98.6,29.1z"/>
	<path fill="#FFFFFF" d="M117.7,22.1h-0.4c-0.2-0.1-0.5-0.1-0.8-0.1c-0.4,0-0.7,0-1.2,0c-0.5,0-1.1,0.1-1.6,0.2
		c-0.6,0.1-1.1,0.3-1.7,0.5v10.6h-4.9V17.5h4.9v2.3c0.2-0.2,0.5-0.5,0.9-0.8c0.4-0.3,0.8-0.6,1.1-0.8c0.4-0.2,0.8-0.4,1.2-0.6
		c0.5-0.2,0.9-0.2,1.3-0.2c0.2,0,0.3,0,0.5,0c0.2,0,0.4,0,0.5,0V22.1z"/>
	<path fill="#FFFFFF" d="M127.7,33.7c-3,0-5.3-0.7-6.9-2.1c-1.6-1.4-2.4-3.5-2.4-6.1c0-2.6,0.7-4.6,2.2-6.2s3.6-2.3,6.2-2.3
		c2.4,0,4.2,0.7,5.5,2c1.2,1.3,1.8,3.2,1.8,5.6v1.8h-10.8c0,0.7,0.2,1.3,0.5,1.8c0.3,0.5,0.6,0.9,1,1.2c0.4,0.3,0.9,0.5,1.5,0.6
		c0.6,0.1,1.2,0.2,1.8,0.2c0.6,0,1.1-0.1,1.7-0.2c0.6-0.1,1.1-0.3,1.5-0.5c0.4-0.2,0.8-0.4,1.1-0.6s0.6-0.4,0.8-0.5h0.5v4.1
		c-0.4,0.2-0.8,0.3-1.1,0.4c-0.3,0.1-0.8,0.3-1.4,0.4c-0.5,0.1-1.1,0.3-1.7,0.3C129.2,33.6,128.5,33.7,127.7,33.7z M129.3,23.3
		c0-1-0.3-1.8-0.7-2.4c-0.5-0.5-1.1-0.8-2.1-0.8c-1,0-1.7,0.3-2.2,0.9c-0.5,0.6-0.8,1.3-0.9,2.3H129.3z"/>
</g>
</svg>
